<?xml version="1.0" standalone="no"?>
<!DOCTYPE svg PUBLIC "-//W3C//DTD SVG 20010904//EN"
 "http://www.w3.org/TR/2001/REC-SVG-20010904/DTD/svg10.dtd">
<svg version="1.0" xmlns="http://www.w3.org/2000/svg"
 width="315.000000pt" height="315.000000pt" viewBox="0 0 315.000000 315.000000"
 preserveAspectRatio="xMidYMid meet">
<metadata>
Created by potrace 1.11, written by Peter Selinger 2001-2013
</metadata>
<g transform="translate(0.000000,315.000000) scale(0.100000,-0.100000)"
fill="#000000" stroke="none">
<path d="M550 3143 c-129 -21 -260 -92 -360 -193 -89 -90 -142 -185 -170 -304
-19 -77 -20 -126 -20 -1071 1 -1090 -1 -1058 63 -1195 85 -183 241 -310 451
-365 41 -11 241 -14 1048 -15 891 0 1006 1 1070 16 230 52 403 207 486 436
l27 73 2 1025 c3 987 2 1028 -17 1100 -52 200 -188 362 -373 444 -30 13 -70
27 -88 32 -19 4 -41 10 -49 13 -18 6 -2033 10 -2070 4z"/>
</g>
</svg>
